<svg id="firebase-seeklogo.com" xmlns="http://www.w3.org/2000/svg" width="96.882" height="133" viewBox="0 0 96.882 133">
  <path id="Tracé_6" data-name="Tracé 6" d="M0,107.353l.805-1.127,38.088-72.27.08-.765L22.183,1.653a3.116,3.116,0,0,0-5.828.983Z" transform="translate(0 0)" fill="#ffc24a"/>
  <g id="Groupe_10" data-name="Groupe 10" transform="translate(0.475 0.494)">
    <path id="Tracé_7" data-name="Tracé 7" d="M1.253,107.3l.609-1.188L39.551,34.6,22.8,2.935a2.83,2.83,0,0,0-5.383.979Z" transform="translate(-1.253 -1.301)" fill="#ffa712"/>
    <path id="Tracé_8" data-name="Tracé 8" d="M1.253,107.3l.609-1.188L39.551,34.6,22.8,2.935a2.83,2.83,0,0,0-5.383.979Z" transform="translate(-1.253 -1.301)" fill="#fcca3f"/>
  </g>
  <path id="Tracé_9" data-name="Tracé 9" d="M114.781,87.6l12.5-12.8-12.5-23.872a3.221,3.221,0,0,0-5.676,0l-6.681,12.742v1.085Z" transform="translate(-63.568 -30.552)" fill="#f4bd62"/>
  <g id="Groupe_11" data-name="Groupe 11" transform="translate(38.973 19.156)">
    <path id="Tracé_10" data-name="Tracé 10" d="M114.756,87.855,126.91,75.407,114.756,52.265c-1.154-2.2-3.958-2.427-5.1-.224L102.94,64.98l-.2.661Z" transform="translate(-102.739 -50.499)" fill="#ffa50e"/>
    <path id="Tracé_11" data-name="Tracé 11" d="M114.756,87.855,126.91,75.407,114.756,52.265c-1.154-2.2-3.958-2.427-5.1-.224L102.94,64.98l-.2.661Z" transform="translate(-102.739 -50.499)" fill="#fcca3f"/>
  </g>
  <path id="Tracé_12" data-name="Tracé 12" d="M0,161.415l.365-.367,1.326-.539,48.737-48.556.617-1.681L38.888,87.1Z" transform="translate(0 -54.062)" fill="#f6820c"/>
  <path id="Tracé_13" data-name="Tracé 13" d="M52.775,176.236l44.108-24.6-12.6-77.573a3.014,3.014,0,0,0-5.109-1.646L0,151.748l43.855,24.486a9.152,9.152,0,0,0,8.919,0" transform="translate(0 -44.395)" fill="#fde068"/>
  <path id="Tracé_14" data-name="Tracé 14" d="M97.288,152.035l-12.5-76.984c-.391-2.409-2.867-3.405-4.591-1.678L1.289,152.2l43.373,24.243a9.083,9.083,0,0,0,8.852,0Z" transform="translate(-0.8 -45)" fill="#fcca3f"/>
  <path id="Tracé_15" data-name="Tracé 15" d="M52.775,305.491a9.152,9.152,0,0,1-8.919,0L.353,281.355,0,281.728l43.855,24.486a9.152,9.152,0,0,0,8.919,0l44.108-24.6-.108-.665Z" transform="translate(0 -174.375)" fill="#eeab37"/>
</svg>
