<svg xmlns="http://www.w3.org/2000/svg" width="26.451" height="25.804" viewBox="0 0 26.451 25.804">
  <g id="github-logo" transform="translate(0 -5.365)">
    <path id="Tracé_5" data-name="Tracé 5" d="M24.677,11.952a13.168,13.168,0,0,0-4.813-4.813,12.936,12.936,0,0,0-6.638-1.774A12.937,12.937,0,0,0,6.587,7.139a13.166,13.166,0,0,0-4.813,4.813A12.937,12.937,0,0,0,0,18.59a12.853,12.853,0,0,0,2.523,7.775,12.953,12.953,0,0,0,6.518,4.779.771.771,0,0,0,.689-.12.673.673,0,0,0,.224-.516q0-.052-.009-.93t-.009-1.532l-.4.069a5.053,5.053,0,0,1-.956.06,7.282,7.282,0,0,1-1.2-.121,2.674,2.674,0,0,1-1.154-.516,2.185,2.185,0,0,1-.758-1.059l-.172-.4a4.3,4.3,0,0,0-.542-.878,2.078,2.078,0,0,0-.749-.654l-.121-.086a1.264,1.264,0,0,1-.224-.207.945.945,0,0,1-.155-.241q-.052-.121.086-.2a1.117,1.117,0,0,1,.5-.077l.344.051A2.514,2.514,0,0,1,5.3,24.2a2.779,2.779,0,0,1,.835.9,3.036,3.036,0,0,0,.956,1.076,2.027,2.027,0,0,0,1.128.37A4.9,4.9,0,0,0,9.2,26.46,3.425,3.425,0,0,0,9.97,26.2a2.79,2.79,0,0,1,.844-1.774,11.791,11.791,0,0,1-1.765-.31,7.028,7.028,0,0,1-1.619-.672,4.636,4.636,0,0,1-1.386-1.154,5.544,5.544,0,0,1-.9-1.808A8.6,8.6,0,0,1,4.787,17.9a5.023,5.023,0,0,1,1.361-3.548,4.629,4.629,0,0,1,.12-3.513,2.413,2.413,0,0,1,1.481.232,10.354,10.354,0,0,1,1.438.663q.457.275.732.465a12.437,12.437,0,0,1,6.613,0l.654-.413a9.268,9.268,0,0,1,1.584-.758,2.257,2.257,0,0,1,1.4-.189,4.585,4.585,0,0,1,.137,3.513A5.024,5.024,0,0,1,21.664,17.9a8.7,8.7,0,0,1-.353,2.592A5.329,5.329,0,0,1,20.4,22.3,4.814,4.814,0,0,1,19,23.446a7.041,7.041,0,0,1-1.619.672,11.779,11.779,0,0,1-1.765.31,3.067,3.067,0,0,1,.9,2.445v3.633a.686.686,0,0,0,.215.516.748.748,0,0,0,.68.12,12.951,12.951,0,0,0,6.518-4.779,12.856,12.856,0,0,0,2.523-7.775A12.947,12.947,0,0,0,24.677,11.952Z" transform="translate(0)" fill="#fff"/>
  </g>
</svg>
