<svg xmlns="http://www.w3.org/2000/svg" width="25.997" height="25.997" viewBox="0 0 25.997 25.997">
  <path id="linkedin" d="M13,0A13,13,0,1,0,26,13,13,13,0,0,0,13,0ZM9.221,19.65H6.056V10.126H9.221ZM7.639,8.825H7.618A1.65,1.65,0,1,1,7.66,5.535a1.651,1.651,0,1,1-.021,3.291Zm13,10.825H17.471v-5.1c0-1.28-.458-2.154-1.6-2.154a1.733,1.733,0,0,0-1.624,1.158,2.168,2.168,0,0,0-.1.773V19.65H10.973s.041-8.631,0-9.524h3.166v1.349A3.143,3.143,0,0,1,16.992,9.9c2.083,0,3.645,1.361,3.645,4.287Zm0,0" fill="#fff"/>
</svg>
