<svg id="next-js-seeklogo.com" xmlns="http://www.w3.org/2000/svg" width="220.458" height="133" viewBox="0 0 220.458 133">
  <path id="Tracé_20" data-name="Tracé 20" d="M52.019,34.688H93.6v3.3H55.83V62.867H91.347v3.3H55.83V93.48h38.2v3.3H52.019Zm45.305,0h4.418L121.32,62,141.33,34.688,168.548,0,123.832,64.867l23.042,31.918h-4.591L121.32,67.737l-21.05,29.048h-4.5l23.216-31.918Zm51.2,3.3v-3.3H195.9v3.3h-21.83V96.785h-3.812V37.993ZM0,34.688H4.764L70.463,133,43.313,96.785,3.985,39.385l-.173,57.4H0ZM195.52,92.483a1.383,1.383,0,1,1,1.363-1.383A1.347,1.347,0,0,1,195.52,92.483Zm3.745-3.639h2.04a1.863,1.863,0,0,0,2.021,1.847c1.326,0,2.077-.8,2.077-2.293V78.93h2.077v9.478c0,2.692-1.557,4.242-4.135,4.242A3.735,3.735,0,0,1,199.266,88.844Zm10.93-.121h2.058c.176,1.272,1.418,2.079,3.208,2.079,1.669,0,2.892-.863,2.892-2.051,0-1.021-.779-1.634-2.549-2.051l-1.724-.418c-2.42-.566-3.523-1.736-3.523-3.7,0-2.386,1.947-3.973,4.867-3.973,2.716,0,4.7,1.587,4.821,3.843h-2.021c-.195-1.235-1.27-2.005-2.828-2.005-1.641,0-2.735.789-2.735,2,0,.956.7,1.5,2.447,1.912l1.474.362c2.744.64,3.875,1.754,3.875,3.769,0,2.562-1.984,4.168-5.154,4.168C212.337,92.65,210.344,91.118,210.2,88.723Z" transform="translate(0)"/>
</svg>
