<svg xmlns="http://www.w3.org/2000/svg" width="134" height="133" viewBox="0 0 134 133">
  <g id="prestashop" transform="translate(0.477 -0.127)">
    <ellipse id="Ellipse_5" data-name="Ellipse 5" cx="67" cy="66.5" rx="67" ry="66.5" transform="translate(-0.477 0.127)" fill="#a2dbeb"/>
    <path id="Tracé_21" data-name="Tracé 21" d="M175.642,395.835a66.709,66.709,0,0,1-12.057,8.3q-1.9,1.025-3.874,1.926a66.716,66.716,0,0,1-55.2,0q-1.97-.9-3.874-1.921a66.863,66.863,0,0,1-12.057-8.307,59.547,59.547,0,0,1,87.065,0Z" transform="translate(-65.546 -278.914)" fill="#525353"/>
    <path id="Tracé_22" data-name="Tracé 22" d="M194.339,439.053q-2.1,1.225-4.282,2.286a66.691,66.691,0,0,1-58.261,0q-2.183-1.065-4.273-2.286a48.107,48.107,0,0,1,66.816,0Z" transform="translate(-94.365 -314.907)"/>
    <g id="Groupe_12" data-name="Groupe 12" transform="translate(38.385 99.921)">
      <path id="Tracé_23" data-name="Tracé 23" d="M161.161,384.29h-7.544l-5.991,18.767h7.544Z" transform="translate(-147.626 -384.29)" fill="#bfb098"/>
      <path id="Tracé_24" data-name="Tracé 24" d="M312.32,384.29h7.544l5.991,18.767h-7.544Z" transform="translate(-269.497 -384.29)" fill="#bfb098"/>
    </g>
    <path id="Tracé_25" data-name="Tracé 25" d="M168.941,123.951c0,.173,0,.346,0,.519a46.354,46.354,0,1,1,0-.519Z" transform="translate(-55.455 -56.944)" fill="#525353"/>
    <g id="Groupe_13" data-name="Groupe 13" transform="translate(22.614 45.782)">
      <path id="Tracé_26" data-name="Tracé 26" d="M161.1,233.262l-.865,1.252a47.007,47.007,0,0,1-73.26-19.8,40.655,40.655,0,0,1,40.591-37.923c6.621,0,13,2.432,18.966,6.226l2.436,5.272,2.516,6.51Z" transform="translate(-86.973 -176.607)" fill="#fff"/>
      <path id="Tracé_27" data-name="Tracé 27" d="M364.906,197.3c0,.173,0,.346,0,.519a46.678,46.678,0,0,1-4.833,20.266l-7.1-4.735-9.288-15.532-3.914-6.546c1-7.877,7.211-15.2,13.423-15.2a5.43,5.43,0,0,1,1,.093,10.292,10.292,0,0,1,4.7,2.565,26.673,26.673,0,0,1,3.781,4.194A46.906,46.906,0,0,1,364.906,197.3Z" transform="translate(-274.033 -176.074)" fill="#fff"/>
    </g>
    <path id="Tracé_28" data-name="Tracé 28" d="M341.47,172.184s1-17.639,10.539-18.86,12.758,20.857,12.758,20.857Z" transform="translate(-252.683 -113.422)"/>
    <path id="Tracé_29" data-name="Tracé 29" d="M358.885,178.734V197.82H343.677l-3.914-6.546c1-7.877,7.211-15.2,13.424-15.2C355.091,176.076,357.043,177.127,358.885,178.734Z" transform="translate(-251.42 -130.293)" fill="#bcbebf"/>
    <path id="Tracé_30" data-name="Tracé 30" d="M289.306,257.265c14.7-2.046,29.279-17.529,29.279-17.529-5.547-7.806-16.122-23.972-29.35-34.711h0c-1.189-.967-2.4-1.89-3.63-2.756-.755-.533-1.522-1.043-2.29-1.531-.093,4.22-.333,10.375-.91,15.332-.018.151-.036.3-.053.444-.768,6.226-6.133,17.133-8.884,23.364v0a18.4,18.4,0,0,0-1.62,4.442c0,2.365-1.331,13.162,14.347,13.162.2,0,.395,0,.595-.009a22.1,22.1,0,0,0,2.52-.213" transform="translate(-201.14 -148.544)" fill="#f9b138"/>
    <path id="Tracé_31" data-name="Tracé 31" d="M187.952,160.042c-8.249-16.286-23.325-15.365-29.883-12.958-8.764,3.217-15.642,11.538-15.088,19.081" transform="translate(-105.781 -107.847)"/>
    <path id="Tracé_32" data-name="Tracé 32" d="M147.326,177.553a40.345,40.345,0,0,1,12.5,5.467c-.044,2.108-.129,4.7-.275,7.389s-.346,5.467-.635,7.943H104.943a40.681,40.681,0,0,1,35.918-21.558,28.549,28.549,0,0,1,6.465.759" transform="translate(-77.656 -130.825)" fill="#bcbebf"/>
    <path id="Tracé_33" data-name="Tracé 33" d="M234.264,336c-6.509-1.331-19.23-9.171-19.23-9.171s8.875,11.981,20.857,15.383Z" transform="translate(-159.122 -241.85)"/>
    <path id="Tracé_34" data-name="Tracé 34" d="M301.872,258.329l-12.567,22.41-2.521.213c-.2,0-.395.009-.594.009-15.678,0-14.347-10.8-14.347-13.162a18.371,18.371,0,0,1,1.62-4.442v0c2.525-5.569,17.875-16.77,18.483-28.5S301.872,258.329,301.872,258.329Z" transform="translate(-201.139 -172.018)"/>
    <path id="Tracé_35" data-name="Tracé 35" d="M350.621,251.936l0,0,0,.009c-.448.466-14.8,15.5-29.27,17.515-5.188-3.985-6.914-7.779-6-12.51.6-3.088,2.325-6.581,4.957-10.788,6.656-10.65,5.471-21.3.968-28.942h0C334.5,227.964,345.074,244.13,350.621,251.936Z" transform="translate(-233.176 -160.743)" fill="#e1006d"/>
    <path id="Tracé_36" data-name="Tracé 36" d="M350.617,350.737l0,.009c-.448.466-14.8,15.5-29.27,17.515-5.188-3.985-6.914-7.779-6-12.51h0C338.347,359.093,350.307,350.95,350.617,350.737Z" transform="translate(-233.177 -259.54)" fill="#9d1d54"/>
    <g id="Groupe_14" data-name="Groupe 14" transform="translate(69.67 45.876)">
      <path id="Tracé_37" data-name="Tracé 37" d="M280.448,185.179c-.044,2.108-.129,4.7-.275,7.389s-.346,5.467-.635,7.943H268.524l-.577-6.359v-14.44A40.342,40.342,0,0,1,280.448,185.179Z" transform="translate(-267.947 -178.86)" fill="#e2dedc"/>
      <path id="Tracé_38" data-name="Tracé 38" d="M405.951,197.567c0,.173,0,.346,0,.519H395.23V176.435a10.292,10.292,0,0,1,4.7,2.565,26.674,26.674,0,0,1,3.781,4.194A46.914,46.914,0,0,1,405.951,197.567Z" transform="translate(-362.135 -176.435)" fill="#e2dedc"/>
    </g>
    <path id="Tracé_39" data-name="Tracé 39" d="M212.078,207.014,206.753,190.3l-4.124,13.334-17.177,4.713,22.927,4.882Z" transform="translate(-137.233 -140.818)" fill="#919494"/>
    <ellipse id="Ellipse_6" data-name="Ellipse 6" cx="6.36" cy="6.36" rx="6.36" ry="6.36" transform="translate(63.308 61.165)"/>
    <path id="Tracé_40" data-name="Tracé 40" d="M406.246,212.77l-2.48,10.909,4.973.076Z" transform="translate(-298.781 -157.447)" fill="#919494"/>
    <ellipse id="Ellipse_7" data-name="Ellipse 7" cx="2.584" cy="4.643" rx="2.584" ry="4.643" transform="translate(104.883 62.883)"/>
    <ellipse id="Ellipse_8" data-name="Ellipse 8" cx="1" cy="1.797" rx="1" ry="1.797" transform="translate(106.467 63.329)" fill="#fff"/>
    <ellipse id="Ellipse_9" data-name="Ellipse 9" cx="2.254" cy="2.254" rx="2.254" ry="2.254" transform="translate(67.414 62.167)" fill="#e2dedc"/>
    <path id="Tracé_41" data-name="Tracé 41" d="M202.219,456.465v7.744a66.692,66.692,0,0,1-58.261,0v-7.739h58.261Z" transform="translate(-106.527 -337.777)" fill="#bfb098"/>
    <path id="Tracé_42" data-name="Tracé 42" d="M285.128,456.465v7.744A66.269,66.269,0,0,1,256,470.9v-14.44Z" transform="translate(-189.436 -337.777)" fill="#aa9676"/>
    <path id="Tracé_43" data-name="Tracé 43" d="M197.9,457.583q-1.9,1.025-3.874,1.926l-.563-7.26H139.384l-.563,7.26q-1.97-.9-3.874-1.922l.745-8.445h61.461Z" transform="translate(-99.859 -332.359)" fill="#8a7460"/>
  </g>
</svg>
