<svg id="react-seeklogo.com" xmlns="http://www.w3.org/2000/svg" width="147.929" height="133" viewBox="0 0 147.929 133">
  <path id="Tracé_44" data-name="Tracé 44" d="M.754,67.046c0,11.171,10.909,21.6,28.107,27.479-3.434,17.29-.616,31.225,8.8,36.655,9.678,5.581,24.1,1.718,37.78-10.244,13.339,11.479,26.821,16,36.228,10.551,9.669-5.6,12.61-20.478,9.08-38.307,17.913-5.923,27.933-14.815,27.933-26.134,0-10.912-10.929-20.353-27.9-26.194,3.8-18.566.58-32.164-9.225-37.818-9.453-5.451-23.091-.7-36.627,11.08C60.854,1.61,47.35-2.207,37.555,3.464,28.111,8.93,25.416,23.119,28.861,40.729,12.244,46.523.754,56.177.754,67.046Z" transform="translate(-0.754 -0.785)" fill="#fff"/>
  <path id="Tracé_45" data-name="Tracé 45" d="M123.259,52.4q-2.044-.7-4.229-1.333.358-1.463.653-2.884c3.2-15.54,1.108-28.058-6.039-32.18-6.854-3.952-18.062.169-29.382,10.02q-1.633,1.421-3.271,3-1.091-1.043-2.177-2.01C66.95,16.479,55.059,12.04,47.918,16.174c-6.847,3.964-8.875,15.733-5.993,30.46q.417,2.134.971,4.352c-1.683.478-3.308.987-4.862,1.529C24.126,57.363,15.243,64.963,15.243,72.846c0,8.142,9.536,16.308,24.023,21.26q1.715.586,3.552,1.111-.6,2.4-1.032,4.69c-2.748,14.471-.6,25.962,6.227,29.9,7.053,4.067,18.891-.113,30.418-10.189q1.367-1.195,2.741-2.526,1.781,1.715,3.552,3.24c11.165,9.608,22.192,13.488,29.015,9.538,7.046-4.079,9.336-16.423,6.363-31.441q-.341-1.721-.788-3.511,1.247-.369,2.443-.763c15.061-4.99,24.86-13.057,24.86-21.307,0-7.912-9.169-15.563-23.358-20.447Z" transform="translate(-6.819 -6.532)" fill="#53c1de"/>
  <path id="Tracé_46" data-name="Tracé 46" d="M124.032,92.858q-1.078.357-2.207.691A131.637,131.637,0,0,0,115.173,76.9a131.608,131.608,0,0,0,6.394-16.4q2.016.583,3.905,1.232c12.157,4.185,19.573,10.373,19.573,15.141,0,5.079-8.009,11.671-21.013,15.98Zm-5.4,10.692a47.524,47.524,0,0,1,.632,17.339c-.782,4.218-2.356,7.03-4.3,8.156-4.14,2.4-12.994-.719-22.543-8.935q-1.642-1.413-3.3-3.012a131.845,131.845,0,0,0,11.012-13.982,131,131,0,0,0,17.792-2.743q.4,1.622.711,3.178ZM64.072,128.63c-4.045,1.429-7.267,1.469-9.214.347-4.144-2.39-5.867-11.616-3.517-23.992q.4-2.126.959-4.361A131.988,131.988,0,0,0,70,103.185a136.623,136.623,0,0,0,11.278,13.933q-1.257,1.214-2.5,2.305a47.533,47.533,0,0,1-14.706,9.206Zm-18.95-35.8A47.531,47.531,0,0,1,29.8,84.686c-3.258-2.79-4.9-5.561-4.9-7.809,0-4.784,7.132-10.885,19.027-15.033,1.443-.5,2.954-.977,4.522-1.423a134.523,134.523,0,0,0,6.4,16.592,136.729,136.729,0,0,0-6.483,16.828q-1.677-.482-3.243-1.015Zm6.352-43.24c-2.469-12.618-.829-22.136,3.3-24.525,4.4-2.544,14.114,1.083,24.357,10.179q.982.872,1.971,1.819A134.443,134.443,0,0,0,69.907,50.909a137.166,137.166,0,0,0-17.531,2.725q-.513-2.063-.9-4.047ZM108.142,63.58q-1.95-3.368-3.995-6.57c4.192.53,8.208,1.233,11.979,2.094a119.876,119.876,0,0,1-4.2,11.312q-1.787-3.394-3.779-6.836ZM85.033,41.071A119.971,119.971,0,0,1,92.764,50.4q-3.854-.182-7.794-.185-3.9,0-7.734.181c2.552-3.366,5.167-6.493,7.8-9.329ZM61.776,63.618Q59.828,67,58.067,70.412c-1.634-3.876-3.032-7.687-4.175-11.368C57.641,58.205,61.638,57.52,65.8,57q-2.07,3.228-4.027,6.618Zm4.147,33.537A119.456,119.456,0,0,1,53.815,95.21c1.16-3.746,2.589-7.639,4.258-11.6q1.764,3.407,3.724,6.8h0q2,3.448,4.125,6.747ZM85.188,113.08c-2.66-2.87-5.313-6.045-7.9-9.459q3.773.148,7.686.149,4.017,0,7.93-.176a119.382,119.382,0,0,1-7.712,9.487Zm26.787-29.67a119.063,119.063,0,0,1,4.411,11.557,119.24,119.24,0,0,1-12.255,2.089q2.046-3.242,4.033-6.685,2.007-3.481,3.81-6.961ZM103.3,87.567c-2.054,3.561-4.162,6.96-6.3,10.168-3.9.279-7.926.422-12.031.422-4.088,0-8.065-.127-11.894-.376-2.227-3.251-4.381-6.66-6.421-10.185h0c-2.035-3.515-3.908-7.06-5.605-10.585,1.7-3.533,3.565-7.082,5.588-10.591h0c2.029-3.518,4.164-6.911,6.37-10.141,3.907-.3,7.914-.449,11.963-.449h0c4.067,0,8.079.155,11.985.453,2.172,3.207,4.293,6.588,6.33,10.107,2.06,3.558,3.952,7.083,5.663,10.541-1.706,3.517-3.594,7.078-5.645,10.634ZM114.881,24.9c4.4,2.537,6.11,12.769,3.346,26.185q-.264,1.284-.59,2.612a134.443,134.443,0,0,0-17.566-2.775,131.837,131.837,0,0,0-11.105-13.86q1.514-1.457,3.021-2.771c9.7-8.441,18.764-11.773,22.894-9.391Z" transform="translate(-10.859 -10.563)" fill="#fff"/>
  <path id="Tracé_47" data-name="Tracé 47" d="M119.775,94.665A11.731,11.731,0,1,1,108.044,106.4a11.731,11.731,0,0,1,11.731-11.731" transform="translate(-45.664 -40.082)" fill="#53c1de"/>
</svg>
