<svg xmlns="http://www.w3.org/2000/svg" width="135" height="133" viewBox="0 0 135 133">
  <g id="symfony-seeklogo.com" transform="translate(0.093 -0.127)">
    <ellipse id="Ellipse_10" data-name="Ellipse 10" cx="67.5" cy="66.5" rx="67.5" ry="66.5" transform="translate(-0.093 0.127)" fill="#1a171b"/>
    <path id="Tracé_48" data-name="Tracé 48" d="M116.434,48.114c-6.8.237-12.743,3.987-17.163,9.175a57.838,57.838,0,0,0-10.5,19.32c-4.2-3.44-7.435-7.893-14.169-9.835a17.321,17.321,0,0,0-15.7,2.868,14.078,14.078,0,0,0-4.8,7c-2.02,6.569,2.123,12.415,4.006,14.514l4.115,4.41a6.249,6.249,0,0,1,1.892,6.354c-1.079,3.516-5.318,5.793-9.666,4.451-1.942-.592-4.732-2.039-4.107-4.076a18.833,18.833,0,0,1,1.174-2.177,10.214,10.214,0,0,0,.522-1.356c.795-2.594-.291-5.968-3.069-6.824-2.592-.794-5.244-.165-6.271,3.172-1.166,3.791.648,10.671,10.366,13.667,11.385,3.5,21.016-2.7,22.382-10.787.861-5.064-1.426-8.826-5.615-13.665L66.42,80.546a6.224,6.224,0,0,1-.638-8.292c1.806-2.282,4.377-3.256,8.589-2.111,6.148,1.669,8.888,5.935,13.461,9.375C85.944,85.711,84.71,91.927,83.594,97.5l-.681,4.156c-3.269,17.145-5.764,26.559-12.248,31.964a10.5,10.5,0,0,1-5.989,2.417,1.723,1.723,0,0,1-1.973-1.412c-.035-1.036.838-1.511,1.418-1.977a3.589,3.589,0,0,0,2.088-3.768,5.685,5.685,0,0,0-6.106-5.423,7.081,7.081,0,0,0-6.566,7.181c.159,4.736,4.573,8.285,11.228,8.061,3.558-.122,11.5-1.57,19.332-10.877,9.113-10.669,11.662-22.9,13.579-31.852l2.14-11.818c1.189.142,2.46.237,3.842.27,11.35.239,17.027-5.64,17.112-9.916.056-2.588-1.7-5.134-4.154-5.077a4.738,4.738,0,0,0-4.5,3.651c-.518,2.386,3.611,4.538.384,6.628-2.293,1.484-6.4,2.53-12.192,1.68l1.052-5.817c2.148-11.032,4.8-24.6,14.85-24.933.733-.037,3.413.033,3.475,1.806.019.592-.128.743-.821,2.1a4.806,4.806,0,0,0-.939,2.99c.1,2.817,2.239,4.668,5.337,4.556,4.148-.134,5.341-4.173,5.273-6.247-.167-4.872-5.3-7.951-12.1-7.728Z" transform="translate(-20.068 -23.461)" fill="#fff"/>
  </g>
</svg>
