<svg id="warren-walter" xmlns="http://www.w3.org/2000/svg" width="97" height="97" viewBox="0 0 97 97">
  <g id="Groupe_10502" data-name="Groupe 10502">
    <path id="Tracé_10269" data-name="Tracé 10269" d="M46.9,1.7A45.2,45.2,0,1,0,92.1,46.9,45.123,45.123,0,0,0,46.9,1.7Z" transform="translate(1.598 1.598)" fill="#fff"/>
    <path id="Tracé_10270" data-name="Tracé 10270" d="M48.5,97A48.5,48.5,0,1,1,97,48.5,48.518,48.518,0,0,1,48.5,97Zm0-95.448A46.948,46.948,0,1,0,95.448,48.5,47.111,47.111,0,0,0,48.5,1.552Z" fill="#f93"/>
    <path id="Tracé_10271" data-name="Tracé 10271" d="M47.748.7A47.142,47.142,0,1,0,94.89,47.842,47.028,47.028,0,0,0,47.748.7Zm0,92.538a45.4,45.4,0,1,1,45.4-45.4,45.454,45.454,0,0,1-45.4,45.4Z" transform="translate(0.752 0.658)" fill="#f93" stroke="#f90" stroke-miterlimit="10" stroke-width="1"/>
  </g>
  <g id="Name_down_1_" transform="translate(15.714 24.25)">
    <path id="Tracé_10272" data-name="Tracé 10272" d="M13.532,33.646h-2.91L8.1,12.5h2.134l2.134,18.042L14.5,12.5h2.134L18.77,30.542,20.9,12.5H22.65L20.128,33.646H17.412L15.278,19.29Z" transform="translate(-8.1 -12.5)" fill="#f90" stroke="#f90" stroke-linecap="round" stroke-linejoin="round" stroke-miterlimit="10" stroke-width="0.25"/>
    <path id="Tracé_10273" data-name="Tracé 10273" d="M18.334,28.99l-.97,4.656H16.2L20.274,12.5H22.02l4.268,21.146H25.124l-.776-4.656Zm.194-1.164H23.96L21.244,14.052Z" transform="translate(-0.486 -12.5)" fill="#f90" stroke="#f90" stroke-linecap="round" stroke-linejoin="round" stroke-miterlimit="10" stroke-width="0.25"/>
    <path id="Tracé_10274" data-name="Tracé 10274" d="M26.38,12.5c2.91,0,4.074,1.746,4.074,4.85V19.1c0,2.522-.776,3.88-2.716,4.462,1.94.388,2.716,1.94,2.716,4.268v3.3a5.325,5.325,0,0,0,.388,2.522H29.484a4.585,4.585,0,0,1-.388-2.522v-3.3c0-2.716-1.358-3.686-3.492-3.686h-1.94v9.506H22.5V12.5ZM25.6,22.976c2.134,0,3.492-.776,3.492-3.492v-1.94c0-2.328-.776-3.686-2.91-3.686H23.47v9.118H25.6Z" transform="translate(5.436 -12.5)" fill="#f90" stroke="#f90" stroke-linecap="round" stroke-linejoin="round" stroke-miterlimit="10" stroke-width="0.25"/>
    <path id="Tracé_10275" data-name="Tracé 10275" d="M31.68,12.5c2.91,0,4.074,1.746,4.074,4.85V19.1c0,2.522-.776,3.88-2.716,4.462,1.94.388,2.716,1.94,2.716,4.268v3.3a5.325,5.325,0,0,0,.388,2.522H34.784a4.585,4.585,0,0,1-.388-2.522v-3.3c0-2.716-1.358-3.686-3.492-3.686h-1.94v9.506H27.8V12.5ZM31.1,22.976c2.134,0,3.492-.776,3.492-3.492v-1.94c0-2.328-.776-3.686-2.91-3.686H28.964v9.118H31.1Z" transform="translate(10.418 -12.5)" fill="#f90" stroke="#f90" stroke-linecap="round" stroke-linejoin="round" stroke-miterlimit="10" stroke-width="0.25"/>
    <path id="Tracé_10276" data-name="Tracé 10276" d="M39.6,22.394v1.358H34.364v8.73h6.208V33.84H33.2V12.5h7.372v1.358H34.364v8.536Z" transform="translate(15.494 -12.5)" fill="#f90" stroke="#f90" stroke-linecap="round" stroke-linejoin="round" stroke-miterlimit="10" stroke-width="0.25"/>
    <path id="Tracé_10277" data-name="Tracé 10277" d="M39.164,33.646H38V12.5h1.552l5.626,17.848V12.5h1.164V33.646H44.984l-5.82-18.818Z" transform="translate(20.006 -12.5)" fill="#f90" stroke="#f90" stroke-linecap="round" stroke-linejoin="round" stroke-miterlimit="10" stroke-width="0.25"/>
    <path id="Tracé_10278" data-name="Tracé 10278" d="M14.526,47.646h-2.91L8.9,26.5h2.134l2.134,18.042L15.3,26.5h2.134L19.57,44.542,21.7,26.5H23.45L20.928,47.646H18.212L16.272,33.29Z" transform="translate(-7.348 0.66)" fill="#f90" stroke="#f90" stroke-linecap="round" stroke-linejoin="round" stroke-miterlimit="10" stroke-width="0.25"/>
    <path id="Tracé_10279" data-name="Tracé 10279" d="M19.234,42.99l-.97,4.656H17.1L21.174,26.5H22.92l4.268,21.146H26.024l-.97-4.656Zm.194-1.164H24.86L22.144,28.052Z" transform="translate(0.36 0.66)" fill="#f90" stroke="#f90" stroke-linecap="round" stroke-linejoin="round" stroke-miterlimit="10" stroke-width="0.25"/>
    <path id="Tracé_10280" data-name="Tracé 10280" d="M23.3,47.646V26.5h1.358V46.288h5.82v1.358Z" transform="translate(6.188 0.66)" fill="#f90" stroke="#f90" stroke-linecap="round" stroke-linejoin="round" stroke-miterlimit="10" stroke-width="0.25"/>
    <path id="Tracé_10281" data-name="Tracé 10281" d="M30.78,47.646V27.858H26.9V26.5h8.924v1.358h-3.88V47.646Z" transform="translate(9.572 0.66)" fill="#f90" stroke="#f90" stroke-linecap="round" stroke-linejoin="round" stroke-miterlimit="10" stroke-width="0.25"/>
    <path id="Tracé_10282" data-name="Tracé 10282" d="M38.8,36.2v1.358H33.564v8.73h6.208v1.358H32.4V26.5h7.372v1.358H33.564v8.536H38.8Z" transform="translate(14.742 0.66)" fill="#f90" stroke="#f90" stroke-linecap="round" stroke-linejoin="round" stroke-miterlimit="10" stroke-width="0.25"/>
    <path id="Tracé_10283" data-name="Tracé 10283" d="M41.18,26.5c2.91,0,4.074,1.746,4.074,4.85V33.1c0,2.522-.776,3.88-2.716,4.462,1.94.388,2.716,1.94,2.716,4.268v3.3a5.325,5.325,0,0,0,.388,2.522H44.284a4.585,4.585,0,0,1-.388-2.522v-3.3c0-2.716-1.358-3.686-3.492-3.686h-1.94v9.506H37.3V26.5ZM40.4,36.976c2.134,0,3.492-.776,3.492-3.492v-1.94c0-2.328-.776-3.686-2.91-3.686H38.27v9.118H40.4Z" transform="translate(19.348 0.66)" fill="#f90" stroke="#f90" stroke-linecap="round" stroke-linejoin="round" stroke-miterlimit="10" stroke-width="0.25"/>
  </g>
  <g id="Name_up_2_" transform="translate(14.744 24.25)">
    <path id="Tracé_10284" data-name="Tracé 10284" d="M13.032,33.646h-2.91L7.6,12.5H9.734l2.134,18.042L14,12.5h2.134L18.27,30.542,20.4,12.5H22.15L19.628,33.646H16.912L14.972,19.29Z" transform="translate(-7.6 -12.5)" fill="#f90" stroke="#f90" stroke-linecap="round" stroke-linejoin="round" stroke-miterlimit="10" stroke-width="0.25"/>
    <path id="Tracé_10285" data-name="Tracé 10285" d="M17.934,28.99l-.97,4.656H15.8L19.874,12.5H21.62l4.268,21.146H24.724l-.97-4.656Zm.194-1.164H23.56L20.844,14.052Z" transform="translate(0.108 -12.5)" fill="#f90" stroke="#f90" stroke-linecap="round" stroke-linejoin="round" stroke-miterlimit="10" stroke-width="0.25"/>
    <path id="Tracé_10286" data-name="Tracé 10286" d="M25.88,12.5c2.91,0,4.074,1.746,4.074,4.85V19.1c0,2.522-.776,3.88-2.716,4.462,1.94.388,2.716,1.94,2.716,4.268v3.3a5.325,5.325,0,0,0,.388,2.522H28.984a4.585,4.585,0,0,1-.388-2.522v-3.3c0-2.716-1.358-3.686-3.492-3.686h-1.94v9.506H22V12.5ZM25.3,22.976c2.134,0,3.492-.776,3.492-3.492v-1.94c0-2.328-.776-3.686-2.91-3.686H23.164v9.118H25.3Z" transform="translate(5.936 -12.5)" fill="#f90" stroke="#f90" stroke-linecap="round" stroke-linejoin="round" stroke-miterlimit="10" stroke-width="0.25"/>
    <path id="Tracé_10287" data-name="Tracé 10287" d="M31.28,12.5c2.91,0,4.074,1.746,4.074,4.85V19.1c0,2.522-.776,3.88-2.716,4.462,1.94.388,2.716,1.94,2.716,4.268v3.3a5.325,5.325,0,0,0,.388,2.522H34.384A4.585,4.585,0,0,1,34,31.124v-3.3c0-2.716-1.358-3.686-3.492-3.686h-1.94v9.506H27.4V12.5ZM30.5,22.976c2.134,0,3.492-.776,3.492-3.492v-1.94c0-2.328-.776-3.686-2.91-3.686H28.564v9.118H30.5Z" transform="translate(11.012 -12.5)" fill="#f90" stroke="#f90" stroke-linecap="round" stroke-linejoin="round" stroke-miterlimit="10" stroke-width="0.25"/>
    <path id="Tracé_10288" data-name="Tracé 10288" d="M39.1,22.394v1.358H33.864v8.73h6.208V33.84H32.7V12.5h7.372v1.358H33.864v8.536Z" transform="translate(15.994 -12.5)" fill="#f90" stroke="#f90" stroke-linecap="round" stroke-linejoin="round" stroke-miterlimit="10" stroke-width="0.25"/>
    <path id="Tracé_10289" data-name="Tracé 10289" d="M38.764,33.646H37.6V12.5h1.552l5.626,17.848V12.5h1.164V33.646H44.584l-5.82-18.818Z" transform="translate(20.6 -12.5)" fill="#f90" stroke="#f90" stroke-linecap="round" stroke-linejoin="round" stroke-miterlimit="10" stroke-width="0.25"/>
    <path id="Tracé_10290" data-name="Tracé 10290" d="M13.932,47.646h-2.91L8.5,26.5h2.134l2.134,18.042L14.9,26.5h2.134L19.17,44.542,21.3,26.5H23.05L20.528,47.646H17.812L15.872,33.29Z" transform="translate(-6.754 0.66)" fill="#f90" stroke="#f90" stroke-linecap="round" stroke-linejoin="round" stroke-miterlimit="10" stroke-width="0.25"/>
    <path id="Tracé_10291" data-name="Tracé 10291" d="M18.834,42.99l-.97,4.656H16.7L20.774,26.5H22.52l4.268,21.146H25.624l-.97-4.656Zm.194-1.164H24.46L21.744,28.052Z" transform="translate(0.954 0.66)" fill="#f90" stroke="#f90" stroke-linecap="round" stroke-linejoin="round" stroke-miterlimit="10" stroke-width="0.25"/>
    <path id="Tracé_10292" data-name="Tracé 10292" d="M22.9,47.646V26.5h1.164V46.288h6.014v1.358Z" transform="translate(6.782 0.66)" fill="#f90" stroke="#f90" stroke-linecap="round" stroke-linejoin="round" stroke-miterlimit="10" stroke-width="0.25"/>
    <path id="Tracé_10293" data-name="Tracé 10293" d="M30.38,47.646V27.858H26.5V26.5h8.924v1.358h-3.88V47.646Z" transform="translate(10.166 0.66)" fill="#f90" stroke="#f90" stroke-linecap="round" stroke-linejoin="round" stroke-miterlimit="10" stroke-width="0.25"/>
    <path id="Tracé_10294" data-name="Tracé 10294" d="M38.3,36.2v1.358H33.064v8.73h6.208v1.358H31.9V26.5h7.372v1.358H33.064v8.536H38.3Z" transform="translate(15.242 0.66)" fill="#f90" stroke="#f90" stroke-linecap="round" stroke-linejoin="round" stroke-miterlimit="10" stroke-width="0.25"/>
    <path id="Tracé_10295" data-name="Tracé 10295" d="M40.68,26.5c2.91,0,4.074,1.746,4.074,4.85V33.1c0,2.522-.776,3.88-2.716,4.462,1.94.388,2.716,1.94,2.716,4.268v3.3a5.325,5.325,0,0,0,.388,2.522H43.784a4.585,4.585,0,0,1-.388-2.522v-3.3c0-2.716-1.358-3.686-3.492-3.686h-1.94v9.506H36.8V26.5ZM40.1,36.976c2.134,0,3.492-.776,3.492-3.492v-1.94c0-2.328-.776-3.686-2.91-3.686H37.964v9.118H40.1Z" transform="translate(19.848 0.66)" fill="#f90" stroke="#f90" stroke-linecap="round" stroke-linejoin="round" stroke-miterlimit="10" stroke-width="0.25"/>
  </g>
</svg>
