<svg id="wordpress" xmlns="http://www.w3.org/2000/svg" width="133" height="133" viewBox="0 0 133 133">
  <path id="Tracé_49" data-name="Tracé 49" d="M87.659,66.736H80.315l20.024,56.6L111.548,91.3l-8.691-24.568H95.108V61.343h34.316v5.393h-8.036l20.023,56.6,7.2-20.569c9.442-26.353-7.739-34.562-7.739-40.443a10.649,10.649,0,0,1,10.649-10.649c.318,0,.627.017.93.045a55.642,55.642,0,0,0-84.5,9.619H87.659v5.393Z" transform="translate(-47.763 -25.69)" fill="#00769d"/>
  <path id="Tracé_50" data-name="Tracé 50" d="M36.548,172.2A55.631,55.631,0,0,0,66.1,221.357l-25.11-70.981A55.46,55.46,0,0,0,36.548,172.2Z" transform="translate(-25.69 -105.701)" fill="#00769d"/>
  <path id="Tracé_51" data-name="Tracé 51" d="M334.139,131.547a39.331,39.331,0,0,1-.666,15.241h.221l-.841,2.4h0a51.843,51.843,0,0,1-1.839,5.256l-19.146,53.637a55.668,55.668,0,0,0,22.272-76.539Z" transform="translate(-219.215 -92.465)" fill="#00769d"/>
  <path id="Tracé_52" data-name="Tracé 52" d="M166.075,293.746a55.9,55.9,0,0,0,33.572.239l-16.276-46.008Z" transform="translate(-116.735 -174.305)" fill="#00769d"/>
  <path id="Tracé_53" data-name="Tracé 53" d="M113.523,19.477a66.5,66.5,0,0,0-94.045,94.045,66.5,66.5,0,1,0,94.045-94.045ZM66.5,128.309A61.809,61.809,0,1,1,128.309,66.5,61.879,61.879,0,0,1,66.5,128.309Z" fill="#00769d"/>
</svg>
